{
 "cells": [
  {
   "cell_type": "code",
   "execution_count": 1,
   "metadata": {
    "collapsed": true
   },
   "outputs": [],
   "source": [
    "### Callin Switzer\n",
    "### Convert short movie to gif for website\n",
    "# 21 Nov 2017\n",
    "# use python3 kernel"
   ]
  },
  {
   "cell_type": "code",
   "execution_count": 9,
   "metadata": {},
   "outputs": [
    {
     "name": "stdout",
     "output_type": "stream",
     "text": [
      "3.3.0\n"
     ]
    }
   ],
   "source": [
    "# import modules\n",
    "\n",
    "\n",
    "import numpy as np\n",
    "\n",
    "import cv2\n",
    "print(cv2.__version__)\n",
    "\n",
    "\n",
    "import matplotlib\n",
    "matplotlib.use(\"TkAgg\") # have to use this for tkinter to  work below\n",
    "from matplotlib import pyplot as plt\n",
    "%matplotlib tk\n",
    "import time\n",
    "\n",
    "\n",
    "import skimage.io as io\n",
    "\n",
    "import os\n",
    "\n",
    "import imageio"
   ]
  },
  {
   "cell_type": "code",
   "execution_count": 10,
   "metadata": {
    "collapsed": true
   },
   "outputs": [],
   "source": [
    "# read in a video and make a gif from selected frames"
   ]
  },
  {
   "cell_type": "code",
   "execution_count": 11,
   "metadata": {
    "collapsed": true
   },
   "outputs": [],
   "source": [
    "vidPath = \"/Users/cswitzer/Desktop/DoubleVid2/combVid.mp4\""
   ]
  },
  {
   "cell_type": "code",
   "execution_count": 12,
   "metadata": {},
   "outputs": [
    {
     "name": "stdout",
     "output_type": "stream",
     "text": [
      "301 504 790 25.0\n"
     ]
    }
   ],
   "source": [
    "cap = cv2.VideoCapture(vidPath)\n",
    "\n",
    "\n",
    "length = int(cap.get(cv2.CAP_PROP_FRAME_COUNT))\n",
    "width  = int(cap.get(cv2.CAP_PROP_FRAME_WIDTH))\n",
    "height = int(cap.get(cv2.CAP_PROP_FRAME_HEIGHT))\n",
    "fps    = cap.get(cv2.CAP_PROP_FPS)\n",
    "\n",
    "print(length, width, height, fps)\n",
    "cap.release()"
   ]
  },
  {
   "cell_type": "code",
   "execution_count": 18,
   "metadata": {
    "collapsed": true
   },
   "outputs": [],
   "source": [
    "def load_imgs(vidPath, imgDist, start, stop):\n",
    "    cap = cv2.VideoCapture(vidPath)\n",
    "    imgs = []\n",
    "    for ff in range(length):\n",
    "        \n",
    "        \n",
    "        ret, frame = cap.read()\n",
    "        print(ff)\n",
    "        \n",
    "        if (ff%imgDist == 0) & (ff > start): # only save every ff'th frame\n",
    "            img = cv2.cvtColor(frame, cv2.COLOR_BGR2RGB)\n",
    "            imgs.append(img)\n",
    "        \n",
    "        if ff > stop:\n",
    "            break\n",
    "            \n",
    "    cap.release()\n",
    "    return imgs\n"
   ]
  },
  {
   "cell_type": "code",
   "execution_count": 21,
   "metadata": {},
   "outputs": [
    {
     "name": "stdout",
     "output_type": "stream",
     "text": [
      "0\n",
      "1\n",
      "2\n",
      "3\n",
      "4\n",
      "5\n",
      "6\n",
      "7\n",
      "8\n",
      "9\n",
      "10\n",
      "11\n",
      "12\n",
      "13\n",
      "14\n",
      "15\n",
      "16\n",
      "17\n",
      "18\n",
      "19\n",
      "20\n",
      "21\n",
      "22\n",
      "23\n",
      "24\n",
      "25\n",
      "26\n",
      "27\n",
      "28\n",
      "29\n",
      "30\n",
      "31\n",
      "32\n",
      "33\n",
      "34\n",
      "35\n",
      "36\n",
      "37\n",
      "38\n",
      "39\n",
      "40\n",
      "41\n",
      "42\n",
      "43\n",
      "44\n",
      "45\n",
      "46\n",
      "47\n",
      "48\n",
      "49\n",
      "50\n",
      "51\n",
      "52\n",
      "53\n",
      "54\n",
      "55\n",
      "56\n",
      "57\n",
      "58\n",
      "59\n",
      "60\n",
      "61\n",
      "62\n",
      "63\n",
      "64\n",
      "65\n",
      "66\n",
      "67\n",
      "68\n",
      "69\n",
      "70\n",
      "71\n",
      "72\n",
      "73\n",
      "74\n",
      "75\n",
      "76\n",
      "77\n",
      "78\n",
      "79\n",
      "80\n",
      "81\n"
     ]
    }
   ],
   "source": [
    "imgs = load_imgs(vidPath, 1, 20, 80)"
   ]
  },
  {
   "cell_type": "code",
   "execution_count": 22,
   "metadata": {
    "collapsed": true
   },
   "outputs": [],
   "source": [
    "imageio.mimsave(os.path.join(os.path.dirname(vidPath), \"doubleGif.gif\"), imgs)"
   ]
  },
  {
   "cell_type": "code",
   "execution_count": 7,
   "metadata": {},
   "outputs": [
    {
     "data": {
      "text/plain": [
       "'/Users/cswitzer/Desktop/DoubleVid2/doubleGif.gif'"
      ]
     },
     "execution_count": 7,
     "metadata": {},
     "output_type": "execute_result"
    }
   ],
   "source": []
  },
  {
   "cell_type": "code",
   "execution_count": null,
   "metadata": {
    "collapsed": true
   },
   "outputs": [],
   "source": [
    "# save small segment of video"
   ]
  },
  {
   "cell_type": "code",
   "execution_count": 16,
   "metadata": {},
   "outputs": [
    {
     "name": "stdout",
     "output_type": "stream",
     "text": [
      "0\n",
      "1\n",
      "2\n",
      "3\n",
      "4\n",
      "5\n",
      "6\n",
      "7\n",
      "8\n",
      "9\n",
      "10\n",
      "11\n",
      "12\n",
      "13\n",
      "14\n",
      "15\n",
      "16\n",
      "17\n",
      "18\n",
      "19\n",
      "20\n",
      "21\n",
      "22\n",
      "23\n",
      "24\n",
      "25\n",
      "26\n",
      "27\n",
      "28\n",
      "29\n",
      "30\n",
      "31\n",
      "32\n",
      "33\n",
      "34\n",
      "35\n",
      "36\n",
      "37\n",
      "38\n",
      "39\n",
      "40\n",
      "41\n",
      "42\n",
      "43\n",
      "44\n",
      "45\n",
      "46\n",
      "47\n",
      "48\n",
      "49\n",
      "50\n",
      "51\n",
      "52\n",
      "53\n",
      "54\n",
      "55\n",
      "56\n",
      "57\n",
      "58\n",
      "59\n",
      "60\n",
      "61\n",
      "62\n",
      "63\n",
      "64\n",
      "65\n",
      "66\n",
      "67\n",
      "68\n",
      "69\n",
      "70\n",
      "71\n",
      "72\n",
      "73\n",
      "74\n",
      "75\n",
      "76\n",
      "77\n",
      "78\n",
      "79\n",
      "80\n",
      "81\n",
      "82\n",
      "83\n",
      "84\n",
      "85\n",
      "86\n",
      "87\n",
      "88\n",
      "89\n",
      "90\n",
      "91\n",
      "92\n",
      "93\n",
      "94\n",
      "95\n",
      "96\n",
      "97\n",
      "98\n",
      "99\n",
      "100\n",
      "101\n",
      "102\n",
      "103\n",
      "104\n",
      "105\n",
      "106\n",
      "107\n",
      "108\n",
      "109\n",
      "110\n",
      "111\n",
      "112\n",
      "113\n",
      "114\n",
      "115\n",
      "116\n",
      "117\n",
      "118\n",
      "119\n",
      "120\n",
      "121\n",
      "122\n",
      "123\n",
      "124\n",
      "125\n",
      "126\n",
      "127\n",
      "128\n",
      "129\n",
      "130\n",
      "131\n",
      "132\n",
      "133\n",
      "134\n",
      "135\n",
      "136\n",
      "137\n",
      "138\n",
      "139\n",
      "140\n",
      "141\n",
      "142\n",
      "143\n",
      "144\n",
      "145\n",
      "146\n",
      "147\n",
      "148\n",
      "149\n",
      "150\n",
      "151\n",
      "152\n",
      "153\n",
      "154\n",
      "155\n",
      "156\n",
      "157\n",
      "158\n",
      "159\n",
      "160\n",
      "161\n",
      "162\n",
      "163\n",
      "164\n",
      "165\n",
      "166\n",
      "167\n",
      "168\n",
      "169\n",
      "170\n",
      "171\n",
      "172\n",
      "173\n",
      "174\n",
      "175\n",
      "176\n",
      "177\n",
      "178\n",
      "179\n",
      "180\n",
      "181\n",
      "182\n",
      "183\n",
      "184\n",
      "185\n",
      "186\n",
      "187\n",
      "188\n",
      "189\n",
      "190\n",
      "191\n",
      "192\n",
      "193\n",
      "194\n",
      "195\n",
      "196\n",
      "197\n",
      "198\n",
      "199\n",
      "200\n",
      "201\n",
      "202\n",
      "203\n",
      "204\n",
      "205\n",
      "206\n",
      "207\n",
      "208\n",
      "209\n",
      "210\n",
      "211\n",
      "212\n",
      "213\n",
      "214\n",
      "215\n",
      "216\n",
      "217\n",
      "218\n",
      "219\n",
      "220\n",
      "221\n",
      "222\n",
      "223\n",
      "224\n",
      "225\n",
      "226\n",
      "227\n",
      "228\n",
      "229\n",
      "230\n",
      "231\n",
      "232\n",
      "233\n",
      "234\n",
      "235\n",
      "236\n",
      "237\n",
      "238\n",
      "239\n",
      "240\n",
      "241\n",
      "242\n",
      "243\n",
      "244\n",
      "245\n",
      "246\n",
      "247\n",
      "248\n",
      "249\n",
      "250\n",
      "251\n",
      "252\n",
      "253\n",
      "254\n",
      "255\n",
      "256\n",
      "257\n",
      "258\n",
      "259\n",
      "260\n",
      "261\n",
      "262\n",
      "263\n",
      "264\n",
      "265\n",
      "266\n",
      "267\n",
      "268\n",
      "269\n",
      "270\n",
      "271\n",
      "272\n",
      "273\n",
      "274\n",
      "275\n",
      "276\n",
      "277\n",
      "278\n",
      "279\n",
      "280\n",
      "281\n",
      "282\n",
      "283\n",
      "284\n",
      "285\n",
      "286\n",
      "287\n",
      "288\n",
      "289\n",
      "290\n",
      "291\n",
      "292\n",
      "293\n",
      "294\n",
      "295\n",
      "296\n",
      "297\n",
      "298\n",
      "299\n",
      "300\n"
     ]
    }
   ],
   "source": [
    "imgs = load_imgs(vidPath, 1, 100, 344)"
   ]
  },
  {
   "cell_type": "code",
   "execution_count": 17,
   "metadata": {},
   "outputs": [
    {
     "name": "stdout",
     "output_type": "stream",
     "text": [
      "0\n",
      "1\n",
      "2\n",
      "3\n",
      "4\n",
      "5\n",
      "6\n",
      "7\n",
      "8\n",
      "9\n",
      "10\n",
      "11\n",
      "12\n",
      "13\n",
      "14\n",
      "15\n",
      "16\n",
      "17\n",
      "18\n",
      "19\n",
      "20\n",
      "21\n",
      "22\n",
      "23\n",
      "24\n",
      "25\n",
      "26\n",
      "27\n",
      "28\n",
      "29\n",
      "30\n",
      "31\n",
      "32\n",
      "33\n",
      "34\n",
      "35\n",
      "36\n",
      "37\n",
      "38\n",
      "39\n",
      "40\n",
      "41\n",
      "42\n",
      "43\n",
      "44\n",
      "45\n",
      "46\n",
      "47\n",
      "48\n",
      "49\n",
      "50\n",
      "51\n",
      "52\n",
      "53\n",
      "54\n",
      "55\n",
      "56\n",
      "57\n",
      "58\n",
      "59\n",
      "60\n",
      "61\n",
      "62\n",
      "63\n",
      "64\n",
      "65\n",
      "66\n",
      "67\n",
      "68\n",
      "69\n",
      "70\n",
      "71\n",
      "72\n",
      "73\n",
      "74\n",
      "75\n",
      "76\n",
      "77\n",
      "78\n",
      "79\n",
      "80\n",
      "81\n",
      "82\n",
      "83\n",
      "84\n",
      "85\n",
      "86\n",
      "87\n",
      "88\n",
      "89\n",
      "90\n",
      "91\n",
      "92\n",
      "93\n",
      "94\n",
      "95\n",
      "96\n",
      "97\n",
      "98\n",
      "99\n",
      "100\n",
      "101\n",
      "102\n",
      "103\n",
      "104\n",
      "105\n",
      "106\n",
      "107\n",
      "108\n",
      "109\n",
      "110\n",
      "111\n",
      "112\n",
      "113\n",
      "114\n",
      "115\n",
      "116\n",
      "117\n"
     ]
    },
    {
     "ename": "KeyboardInterrupt",
     "evalue": "",
     "output_type": "error",
     "traceback": [
      "\u001b[0;31m---------------------------------------------------------------------------\u001b[0m",
      "\u001b[0;31mKeyboardInterrupt\u001b[0m                         Traceback (most recent call last)",
      "\u001b[0;32m<ipython-input-17-8cd8d0800280>\u001b[0m in \u001b[0;36m<module>\u001b[0;34m()\u001b[0m\n\u001b[1;32m      7\u001b[0m \u001b[0;34m\u001b[0m\u001b[0m\n\u001b[1;32m      8\u001b[0m \u001b[0;32mfor\u001b[0m \u001b[0mff\u001b[0m \u001b[0;32min\u001b[0m \u001b[0mrange\u001b[0m\u001b[0;34m(\u001b[0m\u001b[0mlen\u001b[0m\u001b[0;34m(\u001b[0m\u001b[0mimgs\u001b[0m\u001b[0;34m)\u001b[0m\u001b[0;34m)\u001b[0m\u001b[0;34m:\u001b[0m\u001b[0;34m\u001b[0m\u001b[0m\n\u001b[0;32m----> 9\u001b[0;31m     \u001b[0mcv2\u001b[0m\u001b[0;34m.\u001b[0m\u001b[0mimwrite\u001b[0m\u001b[0;34m(\u001b[0m\u001b[0mphotoDir\u001b[0m \u001b[0;34m+\u001b[0m \u001b[0mstr\u001b[0m\u001b[0;34m(\u001b[0m\u001b[0mctr\u001b[0m\u001b[0;34m)\u001b[0m\u001b[0;34m.\u001b[0m\u001b[0mzfill\u001b[0m\u001b[0;34m(\u001b[0m\u001b[0;36m4\u001b[0m\u001b[0;34m)\u001b[0m \u001b[0;34m+\u001b[0m \u001b[0;34m'.png'\u001b[0m\u001b[0;34m,\u001b[0m \u001b[0mimgs\u001b[0m\u001b[0;34m[\u001b[0m\u001b[0mff\u001b[0m\u001b[0;34m]\u001b[0m\u001b[0;34m)\u001b[0m\u001b[0;34m\u001b[0m\u001b[0m\n\u001b[0m\u001b[1;32m     10\u001b[0m     \u001b[0mprint\u001b[0m\u001b[0;34m(\u001b[0m\u001b[0mff\u001b[0m\u001b[0;34m)\u001b[0m\u001b[0;34m\u001b[0m\u001b[0m\n\u001b[1;32m     11\u001b[0m     \u001b[0mctr\u001b[0m \u001b[0;34m+=\u001b[0m \u001b[0;36m1\u001b[0m\u001b[0;34m\u001b[0m\u001b[0m\n",
      "\u001b[0;31mKeyboardInterrupt\u001b[0m: "
     ]
    }
   ],
   "source": [
    "# ctr = 0\n",
    "# photoDir = \"/Users/cswitzer/Dropbox/ExperSummer2016/Kalmia/01_FinalManuscript/LaySummary/kalmVid_short/\"\n",
    "\n",
    "# # make directory, if it doesn't exist\n",
    "# if not os.path.exists(photoDir):\n",
    "#     os.makedirs(photoDir)\n",
    "\n",
    "# for ff in range(len(imgs)):\n",
    "#     cv2.imwrite(photoDir + str(ctr).zfill(4) + '.png', imgs[ff])\n",
    "#     print(ff)\n",
    "#     ctr += 1\n",
    "\n",
    "    "
   ]
  },
  {
   "cell_type": "code",
   "execution_count": 5,
   "metadata": {},
   "outputs": [
    {
     "name": "stdout",
     "output_type": "stream",
     "text": [
      "ffmpeg version 3.2.4 Copyright (c) 2000-2017 the FFmpeg developers\n",
      "  built with Apple LLVM version 6.1.0 (clang-602.0.53) (based on LLVM 3.6.0svn)\n",
      "  configuration: --prefix=/Users/cswitzer/anaconda --disable-doc --enable-shared --enable-static --extra-cflags='-Wall -g -m64 -pipe -O3 -march=x86-64 -fPIC -I/Users/cswitzer/anaconda/include' --extra-cxxflags='=-Wall -g -m64 -pipe -O3 -march=x86-64 -fPIC' --extra-libs='-L/Users/cswitzer/anaconda/lib -lz' --enable-pic --enable-gpl --enable-version3 --enable-hardcoded-tables --enable-avresample --enable-libx264\n",
      "  libavutil      55. 34.101 / 55. 34.101\n",
      "  libavcodec     57. 64.101 / 57. 64.101\n",
      "  libavformat    57. 56.101 / 57. 56.101\n",
      "  libavdevice    57.  1.100 / 57.  1.100\n",
      "  libavfilter     6. 65.100 /  6. 65.100\n",
      "  libavresample   3.  1.  0 /  3.  1.  0\n",
      "  libswscale      4.  2.100 /  4.  2.100\n",
      "  libswresample   2.  3.100 /  2.  3.100\n",
      "  libpostproc    54.  1.100 / 54.  1.100\n",
      "Input #0, image2, from '%04d.png':\n",
      "  Duration: 00:00:01.56, start: 0.000000, bitrate: N/A\n",
      "    Stream #0:0: Video: png, rgba(pc), 400x300 [SAR 3937:3937 DAR 4:3], 25 fps, 25 tbr, 25 tbn, 25 tbc\n",
      "\u001b[1;36m[libx264 @ 0x7fa63f80d400] \u001b[0musing SAR=1/1\n",
      "\u001b[1;36m[libx264 @ 0x7fa63f80d400] \u001b[0musing cpu capabilities: MMX2 SSE2Fast SSSE3 SSE4.2 AVX AVX2 FMA3 LZCNT BMI2\n",
      "\u001b[1;36m[libx264 @ 0x7fa63f80d400] \u001b[0mprofile High, level 2.1\n",
      "\u001b[1;36m[libx264 @ 0x7fa63f80d400] \u001b[0m264 - core 138 - H.264/MPEG-4 AVC codec - Copyleft 2003-2013 - http://www.videolan.org/x264.html - options: cabac=1 ref=3 deblock=1:0:0 analyse=0x3:0x113 me=hex subme=7 psy=1 psy_rd=1.00:0.00 mixed_ref=1 me_range=16 chroma_me=1 trellis=1 8x8dct=1 cqm=0 deadzone=21,11 fast_pskip=1 chroma_qp_offset=-2 threads=12 lookahead_threads=2 sliced_threads=0 nr=0 decimate=1 interlaced=0 bluray_compat=0 constrained_intra=0 bframes=3 b_pyramid=2 b_adapt=1 b_bias=0 direct=1 weightb=1 open_gop=0 weightp=2 keyint=250 keyint_min=25 scenecut=40 intra_refresh=0 rc_lookahead=40 rc=crf mbtree=1 crf=23.0 qcomp=0.60 qpmin=0 qpmax=69 qpstep=4 ip_ratio=1.40 aq=1:1.00\n",
      "Output #0, mp4, to 'NNVID.mp4':\n",
      "  Metadata:\n",
      "    encoder         : Lavf57.56.101\n",
      "    Stream #0:0: Video: h264 (libx264) ([33][0][0][0] / 0x0021), yuv420p, 400x300 [SAR 1:1 DAR 4:3], q=-1--1, 29 fps, 14848 tbn, 29 tbc\n",
      "    Metadata:\n",
      "      encoder         : Lavc57.64.101 libx264\n",
      "    Side data:\n",
      "      cpb: bitrate max/min/avg: 0/0/0 buffer size: 0 vbv_delay: -1\n",
      "Stream mapping:\n",
      "  Stream #0:0 -> #0:0 (png (native) -> h264 (libx264))\n",
      "Press [q] to stop, [?] for help\n",
      "frame=   39 fps=0.0 q=-1.0 Lsize=      21kB time=00:00:01.24 bitrate= 138.8kbits/s speed=9.43x    \n",
      "video:20kB audio:0kB subtitle:0kB other streams:0kB global headers:0kB muxing overhead: 6.113903%\n",
      "\u001b[1;36m[libx264 @ 0x7fa63f80d400] \u001b[0mframe I:1     Avg QP:22.52  size:  4277\n",
      "\u001b[1;36m[libx264 @ 0x7fa63f80d400] \u001b[0mframe P:20    Avg QP:25.27  size:   451\n",
      "\u001b[1;36m[libx264 @ 0x7fa63f80d400] \u001b[0mframe B:18    Avg QP:26.60  size:   351\n",
      "\u001b[1;36m[libx264 @ 0x7fa63f80d400] \u001b[0mconsecutive B-frames: 38.5%  0.0%  0.0% 61.5%\n",
      "\u001b[1;36m[libx264 @ 0x7fa63f80d400] \u001b[0mmb I  I16..4: 25.5% 59.2% 15.4%\n",
      "\u001b[1;36m[libx264 @ 0x7fa63f80d400] \u001b[0mmb P  I16..4:  0.5%  1.3%  0.6%  P16..4:  6.7%  2.7%  0.9%  0.0%  0.0%    skip:87.3%\n",
      "\u001b[1;36m[libx264 @ 0x7fa63f80d400] \u001b[0mmb B  I16..4:  0.0%  0.2%  1.0%  B16..8:  8.6%  1.4%  0.2%  direct: 0.2%  skip:88.5%  L0:47.4% L1:44.0% BI: 8.6%\n",
      "\u001b[1;36m[libx264 @ 0x7fa63f80d400] \u001b[0m8x8 transform intra:52.8% inter:19.8%\n",
      "\u001b[1;36m[libx264 @ 0x7fa63f80d400] \u001b[0mcoded y,uvDC,uvAC intra: 18.8% 17.6% 17.1% inter: 0.8% 1.2% 1.0%\n",
      "\u001b[1;36m[libx264 @ 0x7fa63f80d400] \u001b[0mi16 v,h,dc,p: 29% 54% 17%  0%\n",
      "\u001b[1;36m[libx264 @ 0x7fa63f80d400] \u001b[0mi8 v,h,dc,ddl,ddr,vr,hd,vl,hu: 36%  6% 56%  1%  0%  0%  0%  0%  1%\n",
      "\u001b[1;36m[libx264 @ 0x7fa63f80d400] \u001b[0mi4 v,h,dc,ddl,ddr,vr,hd,vl,hu: 21% 27% 30%  3%  1%  2%  2%  2% 11%\n",
      "\u001b[1;36m[libx264 @ 0x7fa63f80d400] \u001b[0mi8c dc,h,v,p: 87% 10%  2%  1%\n",
      "\u001b[1;36m[libx264 @ 0x7fa63f80d400] \u001b[0mWeighted P-Frames: Y:0.0% UV:0.0%\n",
      "\u001b[1;36m[libx264 @ 0x7fa63f80d400] \u001b[0mref P L0: 82.3%  2.3% 11.1%  4.4%\n",
      "\u001b[1;36m[libx264 @ 0x7fa63f80d400] \u001b[0mref B L0: 89.4%  8.8%  1.8%\n",
      "\u001b[1;36m[libx264 @ 0x7fa63f80d400] \u001b[0mref B L1: 96.7%  3.3%\n",
      "\u001b[1;36m[libx264 @ 0x7fa63f80d400] \u001b[0mkb/s:116.73\n",
      "0.28351306915283203\n"
     ]
    }
   ],
   "source": [
    "# convert images to video with ffmpeg\n",
    "photoDir = \"/Users/cswitzer/Dropbox/SonicationBehavior/NNVid\"\n",
    "\n",
    "os.chdir(photoDir)\n",
    "# use ffmpeg to convert directory to video\n",
    "# -r is output frame rate\n",
    "stta = time.time()\n",
    "!ffmpeg -start_number 1 -r 29 -i %04d.png -vf \"scale=trunc(iw/2)*2:trunc(ih/2)*2\" -c:v libx264 -pix_fmt yuv420p -y NNVID.mp4\n",
    "print(time.time() - stta) # time the video writing"
   ]
  },
  {
   "cell_type": "code",
   "execution_count": 14,
   "metadata": {
    "collapsed": true
   },
   "outputs": [],
   "source": [
    "# delete images in folder\n",
    "fls=os.listdir(photoDir)\n",
    "\n",
    "for item in fls:\n",
    "    if item.endswith(\".png\"):\n",
    "        os.remove(os.path.join(photoDir, item))"
   ]
  },
  {
   "cell_type": "code",
   "execution_count": null,
   "metadata": {
    "collapsed": true
   },
   "outputs": [],
   "source": []
  },
  {
   "cell_type": "code",
   "execution_count": null,
   "metadata": {
    "collapsed": true
   },
   "outputs": [],
   "source": []
  },
  {
   "cell_type": "code",
   "execution_count": null,
   "metadata": {
    "collapsed": true
   },
   "outputs": [],
   "source": []
  },
  {
   "cell_type": "code",
   "execution_count": null,
   "metadata": {
    "collapsed": true
   },
   "outputs": [],
   "source": []
  },
  {
   "cell_type": "code",
   "execution_count": 16,
   "metadata": {},
   "outputs": [
    {
     "name": "stdout",
     "output_type": "stream",
     "text": [
      "326 1920 1080 29.97002997002997\n"
     ]
    }
   ],
   "source": [
    "# read in a video\n",
    "\n",
    "vidDir = '/Users/cswitzer/Desktop/kalmClip_full.mov'\n",
    "\n",
    "cap = cv2.VideoCapture(vidDir)\n",
    "\n",
    "\n",
    "length = int(cap.get(cv2.CAP_PROP_FRAME_COUNT))\n",
    "width  = int(cap.get(cv2.CAP_PROP_FRAME_WIDTH))\n",
    "height = int(cap.get(cv2.CAP_PROP_FRAME_HEIGHT))\n",
    "fps    = cap.get(cv2.CAP_PROP_FPS)\n",
    "\n",
    "print(length, width, height, fps)\n",
    "cap.release()"
   ]
  },
  {
   "cell_type": "code",
   "execution_count": null,
   "metadata": {
    "collapsed": true
   },
   "outputs": [],
   "source": []
  },
  {
   "cell_type": "code",
   "execution_count": null,
   "metadata": {
    "collapsed": true
   },
   "outputs": [],
   "source": []
  },
  {
   "cell_type": "code",
   "execution_count": null,
   "metadata": {
    "collapsed": true
   },
   "outputs": [],
   "source": []
  },
  {
   "cell_type": "code",
   "execution_count": null,
   "metadata": {
    "collapsed": true
   },
   "outputs": [],
   "source": []
  },
  {
   "cell_type": "code",
   "execution_count": null,
   "metadata": {
    "collapsed": true
   },
   "outputs": [],
   "source": []
  },
  {
   "cell_type": "code",
   "execution_count": null,
   "metadata": {
    "collapsed": true
   },
   "outputs": [],
   "source": []
  },
  {
   "cell_type": "code",
   "execution_count": null,
   "metadata": {
    "collapsed": true
   },
   "outputs": [],
   "source": []
  },
  {
   "cell_type": "code",
   "execution_count": null,
   "metadata": {
    "collapsed": true
   },
   "outputs": [],
   "source": []
  },
  {
   "cell_type": "code",
   "execution_count": 16,
   "metadata": {},
   "outputs": [
    {
     "name": "stdout",
     "output_type": "stream",
     "text": [
      "326 1920 1080 29.97002997002997\n"
     ]
    }
   ],
   "source": [
    "# read in a video\n",
    "\n",
    "vidDir = '/Users/cswitzer/Desktop/kalmClip_full.mov'\n",
    "\n",
    "cap = cv2.VideoCapture(vidDir)\n",
    "\n",
    "\n",
    "length = int(cap.get(cv2.CAP_PROP_FRAME_COUNT))\n",
    "width  = int(cap.get(cv2.CAP_PROP_FRAME_WIDTH))\n",
    "height = int(cap.get(cv2.CAP_PROP_FRAME_HEIGHT))\n",
    "fps    = cap.get(cv2.CAP_PROP_FPS)\n",
    "\n",
    "print(length, width, height, fps)\n",
    "cap.release()"
   ]
  },
  {
   "cell_type": "code",
   "execution_count": null,
   "metadata": {
    "collapsed": true
   },
   "outputs": [],
   "source": [
    "# play a video\n",
    "\n",
    "# while(cap.isOpened()):\n",
    "#     ret, frame = cap.read()\n",
    "#     cv2.imshow('frame',frame)\n",
    "#     if cv2.waitKey(1) & 0xFF == ord('q'):\n",
    "#         break\n",
    "\n",
    "# cap.release()\n",
    "# #quirky way to close windows\n",
    "# cv2.destroyAllWindows()\n",
    "# for i in range (1,5):\n",
    "#     cv2.waitKey(1)"
   ]
  },
  {
   "cell_type": "code",
   "execution_count": 9,
   "metadata": {
    "collapsed": true
   },
   "outputs": [],
   "source": [
    "# %qtconsole"
   ]
  },
  {
   "cell_type": "code",
   "execution_count": 32,
   "metadata": {
    "collapsed": true
   },
   "outputs": [],
   "source": [
    "# rotate image\n",
    "cap = cv2.VideoCapture(vidDir)\n",
    "ret, frame = cap.read()"
   ]
  },
  {
   "cell_type": "code",
   "execution_count": 34,
   "metadata": {},
   "outputs": [
    {
     "data": {
      "text/plain": [
       "<matplotlib.image.AxesImage at 0x1246e5e80>"
      ]
     },
     "execution_count": 34,
     "metadata": {},
     "output_type": "execute_result"
    }
   ],
   "source": [
    "M = cv2.getRotationMatrix2D((width/2,height/2),-35,1)\n",
    "dst = cv2.warpAffine(frame,M,(width,height))\n",
    "io.imshow(dst)"
   ]
  },
  {
   "cell_type": "code",
   "execution_count": 36,
   "metadata": {
    "collapsed": true
   },
   "outputs": [],
   "source": [
    "def load_all_images_rotate(rotationAngle):\n",
    "    cap = cv2.VideoCapture(vidDir)\n",
    "    imgs = []\n",
    "    for ff in range(length):\n",
    "        \n",
    "        \n",
    "        ret, frame = cap.read()\n",
    "        print(ff)\n",
    "        \n",
    "        # rotate\n",
    "        M = cv2.getRotationMatrix2D((width/2,height/2),rotationAngle,1)\n",
    "        dst = cv2.warpAffine(frame,M,(width,height))\n",
    "    \n",
    "        imgs.append(dst)\n",
    "        \n",
    "#         if ff%10 == 0: # only save every 10th frame\n",
    "#             img = cv2.cvtColor(frame, cv2.COLOR_BGR2RGB)\n",
    "#             imgs.append(img)\n",
    " \n",
    "    return imgs\n"
   ]
  },
  {
   "cell_type": "code",
   "execution_count": 38,
   "metadata": {},
   "outputs": [
    {
     "name": "stdout",
     "output_type": "stream",
     "text": [
      "0\n",
      "1\n",
      "2\n",
      "3\n",
      "4\n",
      "5\n",
      "6\n",
      "7\n",
      "8\n",
      "9\n",
      "10\n",
      "11\n",
      "12\n",
      "13\n",
      "14\n",
      "15\n",
      "16\n",
      "17\n",
      "18\n",
      "19\n",
      "20\n",
      "21\n",
      "22\n",
      "23\n",
      "24\n",
      "25\n",
      "26\n",
      "27\n",
      "28\n",
      "29\n",
      "30\n",
      "31\n",
      "32\n",
      "33\n",
      "34\n",
      "35\n",
      "36\n",
      "37\n",
      "38\n",
      "39\n",
      "40\n",
      "41\n",
      "42\n",
      "43\n",
      "44\n",
      "45\n",
      "46\n",
      "47\n",
      "48\n",
      "49\n",
      "50\n",
      "51\n",
      "52\n",
      "53\n",
      "54\n",
      "55\n",
      "56\n",
      "57\n",
      "58\n",
      "59\n",
      "60\n",
      "61\n",
      "62\n",
      "63\n",
      "64\n",
      "65\n",
      "66\n",
      "67\n",
      "68\n",
      "69\n",
      "70\n",
      "71\n",
      "72\n",
      "73\n",
      "74\n",
      "75\n",
      "76\n",
      "77\n",
      "78\n",
      "79\n",
      "80\n",
      "81\n",
      "82\n",
      "83\n",
      "84\n",
      "85\n",
      "86\n",
      "87\n",
      "88\n",
      "89\n",
      "90\n",
      "91\n",
      "92\n",
      "93\n",
      "94\n",
      "95\n",
      "96\n",
      "97\n",
      "98\n",
      "99\n",
      "100\n",
      "101\n",
      "102\n",
      "103\n",
      "104\n",
      "105\n",
      "106\n",
      "107\n",
      "108\n",
      "109\n",
      "110\n",
      "111\n",
      "112\n",
      "113\n",
      "114\n",
      "115\n",
      "116\n",
      "117\n",
      "118\n",
      "119\n",
      "120\n",
      "121\n",
      "122\n",
      "123\n",
      "124\n",
      "125\n",
      "126\n",
      "127\n",
      "128\n",
      "129\n",
      "130\n",
      "131\n",
      "132\n",
      "133\n",
      "134\n",
      "135\n",
      "136\n",
      "137\n",
      "138\n",
      "139\n",
      "140\n",
      "141\n",
      "142\n",
      "143\n",
      "144\n",
      "145\n",
      "146\n",
      "147\n",
      "148\n",
      "149\n",
      "150\n",
      "151\n",
      "152\n",
      "153\n",
      "154\n",
      "155\n",
      "156\n",
      "157\n",
      "158\n",
      "159\n",
      "160\n",
      "161\n",
      "162\n",
      "163\n",
      "164\n",
      "165\n",
      "166\n",
      "167\n",
      "168\n",
      "169\n",
      "170\n",
      "171\n",
      "172\n",
      "173\n",
      "174\n",
      "175\n",
      "176\n",
      "177\n",
      "178\n",
      "179\n",
      "180\n",
      "181\n",
      "182\n",
      "183\n",
      "184\n",
      "185\n",
      "186\n",
      "187\n",
      "188\n",
      "189\n",
      "190\n",
      "191\n",
      "192\n",
      "193\n",
      "194\n",
      "195\n",
      "196\n",
      "197\n",
      "198\n",
      "199\n",
      "200\n",
      "201\n",
      "202\n",
      "203\n",
      "204\n",
      "205\n",
      "206\n",
      "207\n",
      "208\n",
      "209\n",
      "210\n",
      "211\n",
      "212\n",
      "213\n",
      "214\n",
      "215\n",
      "216\n",
      "217\n",
      "218\n",
      "219\n",
      "220\n",
      "221\n",
      "222\n",
      "223\n",
      "224\n",
      "225\n",
      "226\n",
      "227\n",
      "228\n",
      "229\n",
      "230\n",
      "231\n",
      "232\n",
      "233\n",
      "234\n",
      "235\n",
      "236\n",
      "237\n",
      "238\n",
      "239\n",
      "240\n",
      "241\n",
      "242\n",
      "243\n",
      "244\n",
      "245\n",
      "246\n",
      "247\n",
      "248\n",
      "249\n",
      "250\n",
      "251\n",
      "252\n",
      "253\n",
      "254\n",
      "255\n",
      "256\n",
      "257\n",
      "258\n",
      "259\n",
      "260\n",
      "261\n",
      "262\n",
      "263\n",
      "264\n",
      "265\n",
      "266\n",
      "267\n",
      "268\n",
      "269\n",
      "270\n",
      "271\n",
      "272\n",
      "273\n",
      "274\n",
      "275\n",
      "276\n",
      "277\n",
      "278\n",
      "279\n",
      "280\n",
      "281\n",
      "282\n",
      "283\n",
      "284\n",
      "285\n",
      "286\n",
      "287\n",
      "288\n",
      "289\n",
      "290\n",
      "291\n",
      "292\n",
      "293\n",
      "294\n",
      "295\n",
      "296\n",
      "297\n",
      "298\n",
      "299\n",
      "300\n",
      "301\n",
      "302\n",
      "303\n",
      "304\n",
      "305\n",
      "306\n",
      "307\n",
      "308\n",
      "309\n",
      "310\n",
      "311\n",
      "312\n",
      "313\n",
      "314\n",
      "315\n",
      "316\n",
      "317\n",
      "318\n",
      "319\n",
      "320\n",
      "321\n",
      "322\n",
      "323\n",
      "324\n",
      "325\n"
     ]
    }
   ],
   "source": [
    "imgs = load_all_images_rotate(-35)"
   ]
  },
  {
   "cell_type": "code",
   "execution_count": 39,
   "metadata": {},
   "outputs": [
    {
     "name": "stdout",
     "output_type": "stream",
     "text": [
      "0\n",
      "1\n",
      "2\n",
      "3\n",
      "4\n",
      "5\n",
      "6\n",
      "7\n",
      "8\n",
      "9\n",
      "10\n",
      "11\n",
      "12\n",
      "13\n",
      "14\n",
      "15\n",
      "16\n",
      "17\n",
      "18\n",
      "19\n",
      "20\n",
      "21\n",
      "22\n",
      "23\n",
      "24\n",
      "25\n",
      "26\n",
      "27\n",
      "28\n",
      "29\n",
      "30\n",
      "31\n",
      "32\n",
      "33\n",
      "34\n",
      "35\n",
      "36\n",
      "37\n",
      "38\n",
      "39\n",
      "40\n",
      "41\n",
      "42\n",
      "43\n",
      "44\n",
      "45\n",
      "46\n",
      "47\n",
      "48\n",
      "49\n",
      "50\n",
      "51\n",
      "52\n",
      "53\n",
      "54\n",
      "55\n",
      "56\n",
      "57\n",
      "58\n",
      "59\n",
      "60\n",
      "61\n",
      "62\n",
      "63\n",
      "64\n",
      "65\n",
      "66\n",
      "67\n",
      "68\n",
      "69\n",
      "70\n",
      "71\n",
      "72\n",
      "73\n",
      "74\n",
      "75\n",
      "76\n",
      "77\n",
      "78\n",
      "79\n",
      "80\n",
      "81\n",
      "82\n",
      "83\n",
      "84\n",
      "85\n",
      "86\n",
      "87\n",
      "88\n",
      "89\n",
      "90\n",
      "91\n",
      "92\n",
      "93\n",
      "94\n",
      "95\n",
      "96\n",
      "97\n",
      "98\n",
      "99\n",
      "100\n",
      "101\n",
      "102\n",
      "103\n",
      "104\n",
      "105\n",
      "106\n",
      "107\n",
      "108\n",
      "109\n",
      "110\n",
      "111\n",
      "112\n",
      "113\n",
      "114\n",
      "115\n",
      "116\n",
      "117\n",
      "118\n",
      "119\n",
      "120\n",
      "121\n",
      "122\n",
      "123\n",
      "124\n",
      "125\n",
      "126\n",
      "127\n",
      "128\n",
      "129\n",
      "130\n",
      "131\n",
      "132\n",
      "133\n",
      "134\n",
      "135\n",
      "136\n",
      "137\n",
      "138\n",
      "139\n",
      "140\n",
      "141\n",
      "142\n",
      "143\n",
      "144\n",
      "145\n",
      "146\n",
      "147\n",
      "148\n",
      "149\n",
      "150\n",
      "151\n",
      "152\n",
      "153\n",
      "154\n",
      "155\n",
      "156\n",
      "157\n",
      "158\n",
      "159\n",
      "160\n",
      "161\n",
      "162\n",
      "163\n",
      "164\n",
      "165\n",
      "166\n",
      "167\n",
      "168\n",
      "169\n",
      "170\n",
      "171\n",
      "172\n",
      "173\n",
      "174\n",
      "175\n",
      "176\n",
      "177\n",
      "178\n",
      "179\n",
      "180\n",
      "181\n",
      "182\n",
      "183\n",
      "184\n",
      "185\n",
      "186\n",
      "187\n",
      "188\n",
      "189\n",
      "190\n",
      "191\n",
      "192\n",
      "193\n",
      "194\n",
      "195\n",
      "196\n",
      "197\n",
      "198\n",
      "199\n",
      "200\n",
      "201\n",
      "202\n",
      "203\n",
      "204\n",
      "205\n",
      "206\n",
      "207\n",
      "208\n",
      "209\n",
      "210\n",
      "211\n",
      "212\n",
      "213\n",
      "214\n",
      "215\n",
      "216\n",
      "217\n",
      "218\n",
      "219\n",
      "220\n",
      "221\n",
      "222\n",
      "223\n",
      "224\n",
      "225\n",
      "226\n",
      "227\n",
      "228\n",
      "229\n",
      "230\n",
      "231\n",
      "232\n",
      "233\n",
      "234\n",
      "235\n",
      "236\n",
      "237\n",
      "238\n",
      "239\n",
      "240\n",
      "241\n",
      "242\n",
      "243\n",
      "244\n",
      "245\n",
      "246\n",
      "247\n",
      "248\n",
      "249\n",
      "250\n",
      "251\n",
      "252\n",
      "253\n",
      "254\n",
      "255\n",
      "256\n",
      "257\n",
      "258\n",
      "259\n",
      "260\n",
      "261\n",
      "262\n",
      "263\n",
      "264\n",
      "265\n",
      "266\n",
      "267\n",
      "268\n",
      "269\n",
      "270\n",
      "271\n",
      "272\n",
      "273\n",
      "274\n",
      "275\n",
      "276\n",
      "277\n",
      "278\n",
      "279\n",
      "280\n",
      "281\n",
      "282\n",
      "283\n",
      "284\n",
      "285\n",
      "286\n",
      "287\n",
      "288\n",
      "289\n",
      "290\n",
      "291\n",
      "292\n",
      "293\n",
      "294\n",
      "295\n",
      "296\n",
      "297\n",
      "298\n",
      "299\n",
      "300\n",
      "301\n",
      "302\n",
      "303\n",
      "304\n",
      "305\n",
      "306\n",
      "307\n",
      "308\n",
      "309\n",
      "310\n",
      "311\n",
      "312\n",
      "313\n",
      "314\n",
      "315\n",
      "316\n",
      "317\n",
      "318\n",
      "319\n",
      "320\n",
      "321\n",
      "322\n",
      "323\n",
      "324\n",
      "325\n"
     ]
    }
   ],
   "source": [
    "# write video frames to images\n",
    "ctr = 0\n",
    "photoDir = \"/Users/cswitzer/Desktop/kalmVidRotate/\"\n",
    "\n",
    "# make directory, if it doesn't exist\n",
    "if not os.path.exists(photoDir):\n",
    "    os.makedirs(photoDir)\n",
    "\n",
    "for ff in range(length):\n",
    "    cv2.imwrite(photoDir + str(ctr).zfill(4) + '.png', imgs[ff])\n",
    "    print(ff)\n",
    "    ctr += 1"
   ]
  },
  {
   "cell_type": "code",
   "execution_count": 43,
   "metadata": {},
   "outputs": [
    {
     "name": "stdout",
     "output_type": "stream",
     "text": [
      "ffmpeg version 3.2.4 Copyright (c) 2000-2017 the FFmpeg developers\n",
      "  built with Apple LLVM version 6.1.0 (clang-602.0.53) (based on LLVM 3.6.0svn)\n",
      "  configuration: --prefix=/Users/cswitzer/anaconda --disable-doc --enable-shared --enable-static --extra-cflags='-Wall -g -m64 -pipe -O3 -march=x86-64 -fPIC -I/Users/cswitzer/anaconda/include' --extra-cxxflags='=-Wall -g -m64 -pipe -O3 -march=x86-64 -fPIC' --extra-libs='-L/Users/cswitzer/anaconda/lib -lz' --enable-pic --enable-gpl --enable-version3 --enable-hardcoded-tables --enable-avresample --enable-libx264\n",
      "  libavutil      55. 34.101 / 55. 34.101\n",
      "  libavcodec     57. 64.101 / 57. 64.101\n",
      "  libavformat    57. 56.101 / 57. 56.101\n",
      "  libavdevice    57.  1.100 / 57.  1.100\n",
      "  libavfilter     6. 65.100 /  6. 65.100\n",
      "  libavresample   3.  1.  0 /  3.  1.  0\n",
      "  libswscale      4.  2.100 /  4.  2.100\n",
      "  libswresample   2.  3.100 /  2.  3.100\n",
      "  libpostproc    54.  1.100 / 54.  1.100\n",
      "Input #0, image2, from '%04d.png':\n",
      "  Duration: 00:00:13.04, start: 0.000000, bitrate: N/A\n",
      "    Stream #0:0: Video: png, rgb24(pc), 1920x1080, 25 fps, 25 tbr, 25 tbn, 25 tbc\n",
      "\u001b[1;36m[libx264 @ 0x7fd13b800c00] \u001b[0musing cpu capabilities: MMX2 SSE2Fast SSSE3 SSE4.2 AVX AVX2 FMA3 LZCNT BMI2\n",
      "\u001b[1;36m[libx264 @ 0x7fd13b800c00] \u001b[0mprofile High, level 4.0\n",
      "\u001b[1;36m[libx264 @ 0x7fd13b800c00] \u001b[0m264 - core 138 - H.264/MPEG-4 AVC codec - Copyleft 2003-2013 - http://www.videolan.org/x264.html - options: cabac=1 ref=3 deblock=1:0:0 analyse=0x3:0x113 me=hex subme=7 psy=1 psy_rd=1.00:0.00 mixed_ref=1 me_range=16 chroma_me=1 trellis=1 8x8dct=1 cqm=0 deadzone=21,11 fast_pskip=1 chroma_qp_offset=-2 threads=12 lookahead_threads=2 sliced_threads=0 nr=0 decimate=1 interlaced=0 bluray_compat=0 constrained_intra=0 bframes=3 b_pyramid=2 b_adapt=1 b_bias=0 direct=1 weightb=1 open_gop=0 weightp=2 keyint=250 keyint_min=25 scenecut=40 intra_refresh=0 rc_lookahead=40 rc=crf mbtree=1 crf=23.0 qcomp=0.60 qpmin=0 qpmax=69 qpstep=4 ip_ratio=1.40 aq=1:1.00\n",
      "Output #0, mp4, to 'rotatedVid.mp4':\n",
      "  Metadata:\n",
      "    encoder         : Lavf57.56.101\n",
      "    Stream #0:0: Video: h264 (libx264) ([33][0][0][0] / 0x0021), yuv420p, 1920x1080, q=-1--1, 29 fps, 14848 tbn, 29 tbc\n",
      "    Metadata:\n",
      "      encoder         : Lavc57.64.101 libx264\n",
      "    Side data:\n",
      "      cpb: bitrate max/min/avg: 0/0/0 buffer size: 0 vbv_delay: -1\n",
      "Stream mapping:\n",
      "  Stream #0:0 -> #0:0 (png (native) -> h264 (libx264))\n",
      "Press [q] to stop, [?] for help\n",
      "frame=  326 fps= 24 q=-1.0 Lsize=    1968kB time=00:00:11.13 bitrate=1447.6kbits/s speed=0.831x    \n",
      "video:1964kB audio:0kB subtitle:0kB other streams:0kB global headers:0kB muxing overhead: 0.226426%\n",
      "\u001b[1;36m[libx264 @ 0x7fd13b800c00] \u001b[0mframe I:2     Avg QP:20.34  size: 50253\n",
      "\u001b[1;36m[libx264 @ 0x7fd13b800c00] \u001b[0mframe P:103   Avg QP:22.63  size: 12753\n",
      "\u001b[1;36m[libx264 @ 0x7fd13b800c00] \u001b[0mframe B:221   Avg QP:23.93  size:  2697\n",
      "\u001b[1;36m[libx264 @ 0x7fd13b800c00] \u001b[0mconsecutive B-frames:  9.2%  0.6%  1.8% 88.3%\n",
      "\u001b[1;36m[libx264 @ 0x7fd13b800c00] \u001b[0mmb I  I16..4:  7.8% 87.1%  5.1%\n",
      "\u001b[1;36m[libx264 @ 0x7fd13b800c00] \u001b[0mmb P  I16..4:  3.8%  4.8%  0.1%  P16..4: 27.8%  4.7%  3.4%  0.0%  0.0%    skip:55.4%\n",
      "\u001b[1;36m[libx264 @ 0x7fd13b800c00] \u001b[0mmb B  I16..4:  0.0%  0.2%  0.0%  B16..8: 16.8%  0.3%  0.0%  direct: 0.4%  skip:82.3%  L0:45.4% L1:54.0% BI: 0.6%\n",
      "\u001b[1;36m[libx264 @ 0x7fd13b800c00] \u001b[0m8x8 transform intra:61.6% inter:91.8%\n",
      "\u001b[1;36m[libx264 @ 0x7fd13b800c00] \u001b[0mcoded y,uvDC,uvAC intra: 19.8% 35.7% 5.7% inter: 4.2% 9.3% 0.4%\n",
      "\u001b[1;36m[libx264 @ 0x7fd13b800c00] \u001b[0mi16 v,h,dc,p: 10% 12%  4% 73%\n",
      "\u001b[1;36m[libx264 @ 0x7fd13b800c00] \u001b[0mi8 v,h,dc,ddl,ddr,vr,hd,vl,hu: 20% 15% 33%  5%  7%  5%  6%  5%  3%\n",
      "\u001b[1;36m[libx264 @ 0x7fd13b800c00] \u001b[0mi4 v,h,dc,ddl,ddr,vr,hd,vl,hu: 20% 18% 13%  6% 14%  8% 12%  6%  4%\n",
      "\u001b[1;36m[libx264 @ 0x7fd13b800c00] \u001b[0mi8c dc,h,v,p: 66% 16% 13%  5%\n",
      "\u001b[1;36m[libx264 @ 0x7fd13b800c00] \u001b[0mWeighted P-Frames: Y:1.9% UV:1.9%\n",
      "\u001b[1;36m[libx264 @ 0x7fd13b800c00] \u001b[0mref P L0: 54.8%  9.4% 25.5% 10.2%  0.0%\n",
      "\u001b[1;36m[libx264 @ 0x7fd13b800c00] \u001b[0mref B L0: 74.5% 19.6%  5.9%\n",
      "\u001b[1;36m[libx264 @ 0x7fd13b800c00] \u001b[0mref B L1: 89.4% 10.6%\n",
      "\u001b[1;36m[libx264 @ 0x7fd13b800c00] \u001b[0mkb/s:1430.53\n",
      "14.30336308479309\n"
     ]
    }
   ],
   "source": [
    "# convert images to video with ffmpeg\n",
    "os.chdir(photoDir)\n",
    "# use ffmpeg to convert directory to video\n",
    "# -r is output frame rate\n",
    "stta = time.time()\n",
    "!ffmpeg -start_number 0 -r 29 -i %04d.png -vf \"scale=trunc(iw/2)*2:trunc(ih/2)*2\" -c:v libx264 -pix_fmt yuv420p -y rotatedVid.mp4\n",
    "print(time.time() - stta) # time the video writing"
   ]
  },
  {
   "cell_type": "code",
   "execution_count": 44,
   "metadata": {
    "collapsed": true
   },
   "outputs": [],
   "source": [
    "# delete images in folder\n",
    "fls=os.listdir(photoDir)\n",
    "\n",
    "for item in fls:\n",
    "    if item.endswith(\".png\"):\n",
    "        os.remove(os.path.join(photoDir, item))"
   ]
  },
  {
   "cell_type": "code",
   "execution_count": 45,
   "metadata": {
    "collapsed": true
   },
   "outputs": [],
   "source": [
    "# del imgs"
   ]
  },
  {
   "cell_type": "code",
   "execution_count": null,
   "metadata": {
    "collapsed": true
   },
   "outputs": [],
   "source": []
  },
  {
   "cell_type": "code",
   "execution_count": null,
   "metadata": {
    "collapsed": true
   },
   "outputs": [],
   "source": []
  },
  {
   "cell_type": "code",
   "execution_count": 46,
   "metadata": {},
   "outputs": [
    {
     "name": "stdout",
     "output_type": "stream",
     "text": [
      "336 1920 1080 29.97002997002997\n"
     ]
    }
   ],
   "source": [
    "# load images for gif\n",
    "vidDir = '/Users/cswitzer/Desktop/rotatedKalmia.mov'\n",
    "\n",
    "cap = cv2.VideoCapture(vidDir)\n",
    "\n",
    "\n",
    "length = int(cap.get(cv2.CAP_PROP_FRAME_COUNT))\n",
    "width  = int(cap.get(cv2.CAP_PROP_FRAME_WIDTH))\n",
    "height = int(cap.get(cv2.CAP_PROP_FRAME_HEIGHT))\n",
    "fps    = cap.get(cv2.CAP_PROP_FPS)\n",
    "\n",
    "print(length, width, height, fps)\n",
    "cap.release()"
   ]
  },
  {
   "cell_type": "code",
   "execution_count": 54,
   "metadata": {
    "collapsed": true
   },
   "outputs": [],
   "source": [
    "def load_imgs(imgDist = 10):\n",
    "    cap = cv2.VideoCapture(vidDir)\n",
    "    imgs = []\n",
    "    for ff in range(length):\n",
    "        \n",
    "        \n",
    "        ret, frame = cap.read()\n",
    "        print(ff)\n",
    "        \n",
    "        if ff%imgDist == 0: # only save every ff'th frame\n",
    "            img = cv2.cvtColor(frame, cv2.COLOR_BGR2RGB)\n",
    "            imgs.append(img)\n",
    " \n",
    "    cap.release()\n",
    "    return imgs\n"
   ]
  },
  {
   "cell_type": "code",
   "execution_count": 55,
   "metadata": {},
   "outputs": [
    {
     "name": "stdout",
     "output_type": "stream",
     "text": [
      "0\n",
      "1\n",
      "2\n",
      "3\n",
      "4\n",
      "5\n",
      "6\n",
      "7\n",
      "8\n",
      "9\n",
      "10\n",
      "11\n",
      "12\n",
      "13\n",
      "14\n",
      "15\n",
      "16\n",
      "17\n",
      "18\n",
      "19\n",
      "20\n",
      "21\n",
      "22\n",
      "23\n",
      "24\n",
      "25\n",
      "26\n",
      "27\n",
      "28\n",
      "29\n",
      "30\n",
      "31\n",
      "32\n",
      "33\n",
      "34\n",
      "35\n",
      "36\n",
      "37\n",
      "38\n",
      "39\n",
      "40\n",
      "41\n",
      "42\n",
      "43\n",
      "44\n",
      "45\n",
      "46\n",
      "47\n",
      "48\n",
      "49\n",
      "50\n",
      "51\n",
      "52\n",
      "53\n",
      "54\n",
      "55\n",
      "56\n",
      "57\n",
      "58\n",
      "59\n",
      "60\n",
      "61\n",
      "62\n",
      "63\n",
      "64\n",
      "65\n",
      "66\n",
      "67\n",
      "68\n",
      "69\n",
      "70\n",
      "71\n",
      "72\n",
      "73\n",
      "74\n",
      "75\n",
      "76\n",
      "77\n",
      "78\n",
      "79\n",
      "80\n",
      "81\n",
      "82\n",
      "83\n",
      "84\n",
      "85\n",
      "86\n",
      "87\n",
      "88\n",
      "89\n",
      "90\n",
      "91\n",
      "92\n",
      "93\n",
      "94\n",
      "95\n",
      "96\n",
      "97\n",
      "98\n",
      "99\n",
      "100\n",
      "101\n",
      "102\n",
      "103\n",
      "104\n",
      "105\n",
      "106\n",
      "107\n",
      "108\n",
      "109\n",
      "110\n",
      "111\n",
      "112\n",
      "113\n",
      "114\n",
      "115\n",
      "116\n",
      "117\n",
      "118\n",
      "119\n",
      "120\n",
      "121\n",
      "122\n",
      "123\n",
      "124\n",
      "125\n",
      "126\n",
      "127\n",
      "128\n",
      "129\n",
      "130\n",
      "131\n",
      "132\n",
      "133\n",
      "134\n",
      "135\n",
      "136\n",
      "137\n",
      "138\n",
      "139\n",
      "140\n",
      "141\n",
      "142\n",
      "143\n",
      "144\n",
      "145\n",
      "146\n",
      "147\n",
      "148\n",
      "149\n",
      "150\n",
      "151\n",
      "152\n",
      "153\n",
      "154\n",
      "155\n",
      "156\n",
      "157\n",
      "158\n",
      "159\n",
      "160\n",
      "161\n",
      "162\n",
      "163\n",
      "164\n",
      "165\n",
      "166\n",
      "167\n",
      "168\n",
      "169\n",
      "170\n",
      "171\n",
      "172\n",
      "173\n",
      "174\n",
      "175\n",
      "176\n",
      "177\n",
      "178\n",
      "179\n",
      "180\n",
      "181\n",
      "182\n",
      "183\n",
      "184\n",
      "185\n",
      "186\n",
      "187\n",
      "188\n",
      "189\n",
      "190\n",
      "191\n",
      "192\n",
      "193\n",
      "194\n",
      "195\n",
      "196\n",
      "197\n",
      "198\n",
      "199\n",
      "200\n",
      "201\n",
      "202\n",
      "203\n",
      "204\n",
      "205\n",
      "206\n",
      "207\n",
      "208\n",
      "209\n",
      "210\n",
      "211\n",
      "212\n",
      "213\n",
      "214\n",
      "215\n",
      "216\n",
      "217\n",
      "218\n",
      "219\n",
      "220\n",
      "221\n",
      "222\n",
      "223\n",
      "224\n",
      "225\n",
      "226\n",
      "227\n",
      "228\n",
      "229\n",
      "230\n",
      "231\n",
      "232\n",
      "233\n",
      "234\n",
      "235\n",
      "236\n",
      "237\n",
      "238\n",
      "239\n",
      "240\n",
      "241\n",
      "242\n",
      "243\n",
      "244\n",
      "245\n",
      "246\n",
      "247\n",
      "248\n",
      "249\n",
      "250\n",
      "251\n",
      "252\n",
      "253\n",
      "254\n",
      "255\n",
      "256\n",
      "257\n",
      "258\n",
      "259\n",
      "260\n",
      "261\n",
      "262\n",
      "263\n",
      "264\n",
      "265\n",
      "266\n",
      "267\n",
      "268\n",
      "269\n",
      "270\n",
      "271\n",
      "272\n",
      "273\n",
      "274\n",
      "275\n",
      "276\n",
      "277\n",
      "278\n",
      "279\n",
      "280\n",
      "281\n",
      "282\n",
      "283\n",
      "284\n",
      "285\n",
      "286\n",
      "287\n",
      "288\n",
      "289\n",
      "290\n",
      "291\n",
      "292\n",
      "293\n",
      "294\n",
      "295\n",
      "296\n",
      "297\n",
      "298\n",
      "299\n",
      "300\n",
      "301\n",
      "302\n",
      "303\n",
      "304\n",
      "305\n",
      "306\n",
      "307\n",
      "308\n",
      "309\n",
      "310\n",
      "311\n",
      "312\n",
      "313\n",
      "314\n",
      "315\n",
      "316\n",
      "317\n",
      "318\n",
      "319\n",
      "320\n",
      "321\n",
      "322\n",
      "323\n",
      "324\n",
      "325\n",
      "326\n",
      "327\n",
      "328\n",
      "329\n",
      "330\n",
      "331\n",
      "332\n",
      "333\n",
      "334\n",
      "335\n"
     ]
    }
   ],
   "source": [
    "imgs = load_imgs()"
   ]
  },
  {
   "cell_type": "code",
   "execution_count": 56,
   "metadata": {
    "collapsed": true
   },
   "outputs": [],
   "source": [
    "imageio.mimsave('/Users/cswitzer/Desktop/beeOnFlower.gif', imgs)\n",
    "    "
   ]
  },
  {
   "cell_type": "code",
   "execution_count": 57,
   "metadata": {
    "collapsed": true
   },
   "outputs": [],
   "source": [
    "# read in another video and make a gif\n",
    "del imgs"
   ]
  },
  {
   "cell_type": "code",
   "execution_count": null,
   "metadata": {
    "collapsed": true
   },
   "outputs": [],
   "source": []
  }
 ],
 "metadata": {
  "kernelspec": {
   "display_name": "Python 3",
   "language": "python",
   "name": "python3"
  },
  "language_info": {
   "codemirror_mode": {
    "name": "ipython",
    "version": 3
   },
   "file_extension": ".py",
   "mimetype": "text/x-python",
   "name": "python",
   "nbconvert_exporter": "python",
   "pygments_lexer": "ipython3",
   "version": "3.6.1"
  }
 },
 "nbformat": 4,
 "nbformat_minor": 2
}
